<svg width="24" height="25" viewBox="0 0 24 25" fill="none" xmlns="http://www.w3.org/2000/svg">
<path d="M14.16 21.3L12.745 17.055C12.11 15.15 13.15 14.115 15.055 14.745L19.3 16.16C22.155 17.11 22.155 18.67 19.3 19.62L18.04 20.04L17.62 21.3C16.67 24.155 15.115 24.155 14.16 21.3Z" stroke="#292D32" stroke-width="1.3" stroke-linecap="round" stroke-linejoin="round"/>
<path d="M17.825 19.945L16.03 18.155" stroke="#292D32" stroke-width="1.3" stroke-linecap="round" stroke-linejoin="round"/>
<path d="M13 19C12.1694 19.9436 11.2 21.24 11.2 21.24C10.09 22.5 9.17998 22.16 9.17998 20.48V13.28H6.08998C4.68998 13.28 4.29998 12.42 5.21998 11.36L12.79 2.76002C13.9 1.50002 14.81 1.84002 14.81 3.52002V10.72H17.9C19.31 10.72 19.7 11.59 18.77 12.64L16.5 15" stroke="#292D32" stroke-width="1.5" stroke-miterlimit="10" stroke-linecap="round" stroke-linejoin="round"/>
</svg>
